<svg width="619" height="101" viewBox="0 0 619 101" fill="none" xmlns="http://www.w3.org/2000/svg">
<path d="M0.8125 1.3125H20.625V26.8125H81.375V1.3125H101.25V99H81.375V43.75H20.625V99H0.8125V1.3125ZM158.938 74.8125L116.25 1.3125H138.688L168.75 56.875L198.438 1.3125H220.875L178.75 74.6875V99H158.938V74.8125ZM269.188 1.3125H290.188L337.438 99H316.625L308.812 82.5625H251.75L244.188 99H223.312L269.188 1.3125ZM301 66.25L279.875 21.875L259.312 66.25H301ZM350.125 1.3125H370.062V99H350.125V1.3125ZM389.438 49.5625C389.438 42.6042 390.75 36.125 393.375 30.125C396 24.0833 399.792 18.8542 404.75 14.4375C409.75 9.97917 415.833 6.47917 423 3.9375C430.208 1.39583 438.354 0.125 447.438 0.125C455.396 0.125 462.688 0.9375 469.312 2.5625C475.979 4.14583 482.167 6.58333 487.875 9.875L478.75 24.875C477.042 23.75 475.062 22.75 472.812 21.875C470.604 21 468.229 20.2708 465.688 19.6875C463.188 19.0625 460.583 18.5833 457.875 18.25C455.208 17.9167 452.562 17.75 449.938 17.75C443.604 17.75 437.958 18.5417 433 20.125C428.042 21.6667 423.854 23.8542 420.438 26.6875C417.062 29.4792 414.479 32.8333 412.688 36.75C410.938 40.625 410.062 44.8958 410.062 49.5625C410.062 54.3958 410.979 58.8333 412.812 62.875C414.646 66.9167 417.292 70.4167 420.75 73.375C424.25 76.2917 428.5 78.5833 433.5 80.25C438.542 81.875 444.229 82.6875 450.562 82.6875C453.438 82.6875 456.292 82.4792 459.125 82.0625C461.958 81.6458 464.688 81.0833 467.312 80.375C469.979 79.625 472.542 78.75 475 77.75C477.458 76.7083 479.75 75.5833 481.875 74.375L491 89.375C485.667 92.7917 479.5 95.4792 472.5 97.4375C465.5 99.3542 458.062 100.312 450.188 100.312C440.146 100.312 431.333 99.0208 423.75 96.4375C416.167 93.8125 409.833 90.2292 404.75 85.6875C399.667 81.1042 395.833 75.7292 393.25 69.5625C390.708 63.3542 389.438 56.6875 389.438 49.5625ZM507.125 49.875C507.125 42.5 508.479 35.75 511.188 29.625C513.896 23.5 517.688 18.25 522.562 13.875C527.479 9.45833 533.354 6.04167 540.188 3.625C547.062 1.20833 554.667 0 563 0C571.292 0 578.875 1.20833 585.75 3.625C592.625 6.04167 598.5 9.45833 603.375 13.875C608.292 18.25 612.104 23.5 614.812 29.625C617.521 35.75 618.875 42.5 618.875 49.875C618.875 57.2917 617.521 64.1042 614.812 70.3125C612.104 76.4792 608.292 81.7917 603.375 86.25C598.5 90.7083 592.625 94.1875 585.75 96.6875C578.875 99.1458 571.292 100.375 563 100.375C554.667 100.375 547.062 99.1458 540.188 96.6875C533.354 94.1875 527.479 90.7083 522.562 86.25C517.688 81.7917 513.896 76.4792 511.188 70.3125C508.479 64.1042 507.125 57.2917 507.125 49.875ZM526.938 49.875C526.938 54.9167 527.833 59.4583 529.625 63.5C531.458 67.5417 533.979 71 537.188 73.875C540.438 76.7083 544.25 78.8958 548.625 80.4375C553.042 81.9792 557.833 82.75 563 82.75C568.167 82.75 572.938 81.9792 577.312 80.4375C581.729 78.8958 585.542 76.7083 588.75 73.875C591.958 71 594.479 67.5417 596.312 63.5C598.146 59.4583 599.062 54.9167 599.062 49.875C599.062 44.8333 598.146 40.3125 596.312 36.3125C594.479 32.3125 591.958 28.9375 588.75 26.1875C585.542 23.3958 581.729 21.2708 577.312 19.8125C572.938 18.3542 568.167 17.625 563 17.625C557.833 17.625 553.042 18.3542 548.625 19.8125C544.25 21.2708 540.438 23.3958 537.188 26.1875C533.979 28.9375 531.458 32.3125 529.625 36.3125C527.833 40.3125 526.938 44.8333 526.938 49.875Z" fill="black"/>
</svg>
